<?xml version="1.0" standalone="no"?>
<!DOCTYPE svg PUBLIC "-//W3C//DTD SVG 20010904//EN"
 "http://www.w3.org/TR/2001/REC-SVG-20010904/DTD/svg10.dtd">
<svg version="1.0" xmlns="http://www.w3.org/2000/svg"
 width="709.000000pt" height="709.000000pt" viewBox="0 0 709.000000 709.000000"
 preserveAspectRatio="xMidYMid meet">
<metadata>
Created by potrace 1.11, written by Peter Selinger 2001-2013
</metadata>
<g transform="translate(0.000000,709.000000) scale(0.100000,-0.100000)"
fill="#000000" stroke="none">
<path d="M4455 6459 c-22 -5 -56 -11 -76 -13 -38 -2 -89 -29 -89 -45 0 -5 -12
-12 -27 -16 -16 -3 -35 -11 -43 -18 -24 -19 -120 -133 -120 -143 -1 -5 -13
-24 -29 -42 l-28 -33 -40 43 c-50 54 -100 91 -116 85 -7 -2 -29 4 -50 15 -27
14 -42 16 -51 9 -8 -7 -24 -7 -46 -1 -27 8 -36 7 -43 -5 -6 -11 -13 -13 -27
-5 -24 13 -70 13 -70 0 0 -6 -18 -7 -45 -3 -28 3 -50 1 -58 -6 -8 -6 -27 -8
-46 -5 -27 6 -33 3 -37 -14 -4 -13 -17 -22 -40 -27 -20 -3 -42 -14 -51 -24 -9
-11 -23 -16 -34 -14 -32 9 -89 -6 -83 -21 4 -9 -7 -18 -30 -26 -20 -6 -39 -18
-43 -25 -5 -7 -21 -15 -38 -17 -16 -1 -29 -8 -28 -14 1 -7 -18 -17 -42 -23
-25 -6 -45 -17 -45 -25 0 -7 -11 -18 -25 -24 -16 -7 -23 -17 -19 -27 4 -10 0
-15 -14 -15 -12 0 -27 -8 -34 -18 -7 -10 -35 -29 -63 -43 -63 -31 -67 -45 -15
-52 39 -5 99 -48 100 -71 0 -5 21 -28 46 -51 36 -34 45 -47 39 -64 -4 -14 1
-28 17 -44 13 -14 30 -36 38 -49 42 -71 73 -110 96 -120 17 -8 24 -18 21 -29
-3 -11 9 -30 29 -50 19 -18 34 -41 34 -51 0 -12 20 -28 60 -48 36 -18 58 -35
54 -41 -10 -16 16 -29 60 -29 29 0 37 -3 33 -14 -8 -19 24 -29 64 -21 23 5 34
3 44 -11 11 -16 18 -17 61 -7 41 10 51 10 61 -3 10 -14 15 -14 43 1 18 9 37
14 44 12 7 -3 28 7 46 21 19 15 43 26 54 27 12 0 32 17 51 42 16 23 35 42 41
42 14 1 24 33 24 75 0 36 42 186 52 186 10 0 52 -59 76 -105 17 -35 51 -148
93 -309 7 -27 28 -72 46 -100 29 -42 33 -56 28 -86 -11 -63 -37 -133 -86 -232
-75 -149 -180 -428 -203 -540 -4 -17 -21 -35 -51 -52 -24 -15 -59 -44 -76 -66
-17 -21 -55 -57 -84 -78 l-52 -39 -7 51 c-3 28 -9 65 -12 83 -6 28 -3 33 33
50 33 16 35 18 16 21 -20 3 -22 6 -11 25 7 12 11 25 10 30 -1 4 2 7 8 7 5 0
10 11 10 24 0 16 7 27 22 32 44 14 90 35 85 40 -2 3 -21 -3 -41 -12 -19 -10
-38 -15 -41 -12 -4 3 1 31 10 62 9 31 14 62 12 69 -4 7 -6 6 -6 -4 -1 -9 -14
-55 -30 -102 -31 -92 -77 -172 -100 -172 -18 0 -49 87 -33 93 7 2 22 12 34 23
21 18 20 18 -13 -1 l-37 -21 -6 27 c-4 14 -9 24 -12 21 -3 -2 4 -31 15 -63 11
-33 21 -68 23 -79 2 -11 10 -19 16 -17 14 2 16 -14 3 -22 -8 -5 -61 16 -125
50 -26 13 -28 13 -16 -1 7 -8 11 -16 9 -18 -2 -1 -15 -9 -29 -16 -14 -8 -50
-28 -79 -45 -30 -16 -49 -32 -42 -34 7 -2 16 0 20 5 6 10 117 73 127 73 3 0 4
-10 1 -21 -4 -15 -3 -19 4 -12 13 13 51 4 42 -10 -6 -9 23 -5 60 9 19 7 25
-19 33 -136 4 -57 2 -123 -5 -165 -14 -85 -17 -198 -7 -242 l8 -33 -56 0 -56
0 0 160 c0 177 0 178 -61 162 l-34 -8 -3 -157 -3 -156 -152 -3 -152 -3 -11
-35 c-7 -19 -10 -38 -7 -42 2 -5 76 -8 163 -8 l160 0 2 -162 c3 -163 3 -163
27 -166 12 -2 34 -1 47 2 l24 6 0 160 0 160 158 -2 c86 0 143 -3 125 -5 -47
-6 -57 -24 -39 -67 8 -20 22 -36 30 -36 9 0 16 -4 16 -10 0 -18 63 -81 77 -76
7 3 31 -14 55 -40 23 -25 47 -43 54 -40 7 3 18 -2 25 -10 16 -19 89 -57 96
-50 3 3 19 -6 35 -19 16 -14 36 -25 44 -25 8 0 33 -14 56 -31 39 -27 44 -29
55 -14 11 16 15 15 45 -7 18 -14 49 -30 68 -37 19 -7 47 -19 61 -27 14 -7 29
-11 32 -8 3 3 37 -26 76 -65 39 -39 73 -71 75 -71 3 0 12 25 21 55 8 30 27 76
40 101 14 26 25 54 25 62 0 9 6 12 15 8 10 -4 22 5 35 27 10 17 26 39 34 48 9
8 19 30 22 49 4 19 14 35 25 37 10 3 23 22 30 42 7 20 22 47 35 60 13 13 29
41 34 62 6 22 15 39 19 39 13 0 31 57 31 96 0 24 5 34 15 34 12 0 15 13 15 60
0 54 2 60 21 60 22 0 21 9 -7 79 -19 45 -18 53 6 46 24 -8 25 3 5 69 -19 61
-19 66 0 66 24 0 18 26 -15 64 -18 20 -26 37 -20 41 17 10 12 23 -26 65 -20
21 -33 44 -29 50 10 16 -13 39 -54 56 -27 12 -32 17 -21 24 38 23 -106 107
-200 117 -30 3 -65 12 -77 19 -19 12 -31 12 -80 -1 -67 -17 -100 -19 -105 -5
-1 5 -25 -1 -52 -15 -27 -14 -59 -25 -71 -25 -11 0 -44 -11 -72 -25 l-51 -26
-47 46 c-26 25 -53 45 -61 45 -18 0 -18 4 2 41 8 17 17 58 20 92 5 72 18 116
89 292 29 72 58 146 65 165 19 50 82 166 124 230 20 30 39 64 42 75 4 11 13
28 22 38 13 15 17 26 21 70 1 5 5 5 11 2 5 -3 8 0 5 7 -6 16 79 151 88 141 4
-3 7 1 7 10 0 10 6 14 14 11 8 -3 17 -1 21 5 3 6 16 11 28 11 12 0 67 16 122
35 121 42 222 47 293 15 23 -10 42 -22 42 -26 0 -3 -11 -15 -25 -26 -14 -11
-44 -52 -67 -91 -70 -121 -76 -137 -71 -194 3 -29 9 -53 13 -53 4 0 12 -25 19
-55 11 -50 19 -60 44 -56 4 1 15 -15 23 -35 12 -28 20 -35 35 -31 14 4 23 -3
34 -24 10 -18 20 -26 30 -23 9 4 28 -8 48 -30 23 -24 43 -36 62 -36 15 0 38
-9 52 -20 18 -14 30 -17 42 -10 12 6 23 2 41 -15 40 -37 65 -40 78 -10 7 15
16 24 21 21 5 -4 11 0 14 6 3 10 7 10 20 -1 9 -7 15 -17 12 -21 -5 -8 42 -23
75 -25 8 -1 33 -5 54 -9 32 -7 42 -6 52 8 11 16 17 16 50 4 30 -10 38 -10 41
0 6 17 76 15 120 -3 20 -8 39 -13 42 -10 3 4 7 32 8 63 6 132 11 207 13 212 9
17 7 357 -2 367 -6 7 -8 19 -5 27 3 7 -3 28 -14 45 -11 18 -17 37 -13 42 3 6
-8 25 -25 43 -20 20 -29 39 -26 48 4 10 -4 23 -24 37 -16 12 -33 32 -37 44 -9
30 -60 74 -101 88 -18 6 -38 20 -44 30 -7 14 -19 20 -37 18 -15 -2 -37 3 -49
9 -26 14 -143 10 -186 -7 -16 -6 -32 -9 -37 -6 -17 10 -119 -45 -143 -77 -13
-18 -44 -75 -67 -125 -24 -51 -46 -93 -50 -93 -3 0 -26 10 -51 22 -65 31 -166
35 -265 10 -43 -11 -88 -24 -98 -28 -16 -6 -18 -4 -11 12 4 10 10 35 12 54 4
35 3 35 -13 13 -23 -31 -40 -29 -20 2 9 14 14 31 10 37 -4 7 -3 8 4 4 12 -7
110 130 100 139 -3 3 -22 -22 -42 -55 -38 -61 -70 -95 -42 -44 29 54 72 109
84 109 7 0 32 29 57 65 37 54 42 66 29 73 -14 8 -13 10 3 22 10 7 18 17 18 22
0 12 81 84 89 78 3 -3 4 -2 1 2 -7 8 105 123 119 123 6 0 25 14 43 32 18 17
54 43 79 57 26 14 50 33 54 41 4 8 12 25 18 37 14 26 16 53 4 53 -5 0 -17 -7
-28 -15 -25 -19 -34 -19 -34 1 0 32 -26 6 -57 -57 -38 -78 -224 -282 -249
-272 -13 5 -13 8 1 23 18 19 20 40 4 40 -19 0 -54 -53 -50 -78 2 -20 0 -22
-16 -14 -10 6 -45 39 -79 74 -45 47 -63 73 -68 103 -9 46 -32 95 -46 95 -5 0
-16 13 -25 30 -16 31 -69 90 -82 91 -92 6 -135 5 -168 -2z m430 -402 c18 -34
18 -35 -9 -92 -14 -31 -72 -128 -129 -214 -57 -86 -130 -203 -162 -261 -123
-222 -234 -404 -242 -396 -2 2 6 24 18 50 13 25 20 48 17 51 -8 8 -58 -21 -72
-42 -7 -10 -16 -31 -20 -48 l-8 -30 -19 24 c-17 21 -35 73 -71 206 -39 145
-61 193 -117 256 l-41 47 39 39 c41 40 61 92 61 155 0 20 4 39 9 42 5 3 25 -5
45 -19 20 -14 48 -25 61 -25 14 0 25 -4 25 -10 0 -5 13 -10 28 -10 15 0 33 -5
39 -11 11 -11 206 -17 258 -7 28 5 77 26 118 48 9 6 25 14 35 18 9 5 24 22 32
38 8 16 20 33 27 39 17 14 28 85 14 85 -6 0 -11 6 -11 14 0 8 8 13 18 12 14
-1 17 7 15 48 -3 54 10 52 42 -7z m-155 -450 c0 -2 -10 -12 -22 -23 l-23 -19
19 23 c18 21 26 27 26 19z m-1130 -67 c0 -5 -2 -10 -4 -10 -3 0 -8 5 -11 10
-3 6 -1 10 4 10 6 0 11 -4 11 -10z m1824 -332 c-3 -4 1 -8 10 -8 8 0 16 5 18
11 2 7 13 9 27 4 15 -4 20 -12 16 -22 -4 -13 -3 -14 9 -3 13 10 19 9 31 -4 9
-9 21 -16 26 -16 5 0 9 -20 9 -45 0 -28 -4 -45 -12 -45 -15 0 -78 -60 -78 -74
0 -5 15 6 34 25 71 70 73 71 112 57 23 -8 33 -17 29 -28 -10 -31 -14 -106 -5
-85 5 11 9 16 9 12 1 -5 6 -5 11 -2 7 5 8 11 1 19 -6 7 -6 17 -1 26 6 8 10 11
10 6 0 -5 8 -2 18 7 10 10 22 14 27 10 4 -5 4 2 1 15 -9 28 -7 28 34 -3 19
-14 30 -25 25 -25 -5 0 0 -6 10 -14 17 -12 18 -18 7 -53 -14 -47 -15 -53 -4
-52 24 4 39 -3 39 -18 0 -20 -20 -43 -36 -43 -6 0 -11 -4 -11 -9 0 -9 -41 -3
-50 8 -3 4 -18 12 -33 19 -24 10 -29 10 -34 -6 -14 -37 -47 -43 -41 -7 3 13 2
23 -1 22 -19 -5 -51 31 -51 57 0 32 -7 32 -13 0 -7 -34 -19 -54 -33 -54 -8 0
-14 -6 -15 -12 0 -7 -4 -3 -9 10 -9 22 -11 22 -35 6 -18 -12 -24 -22 -19 -36
6 -19 5 -19 -15 -1 -12 9 -21 25 -21 34 0 9 -9 24 -20 34 -11 10 -20 23 -20
30 0 7 -9 20 -20 30 -19 17 -46 82 -42 99 2 5 -5 17 -14 27 -16 18 -12 39 7
39 6 0 8 -4 4 -9 -3 -5 -1 -12 4 -15 14 -9 23 26 9 36 -10 6 -10 10 2 18 8 5
23 10 33 10 10 0 16 4 13 9 -7 10 7 17 34 17 10 0 16 -4 14 -8z m-1014 -87
c-5 -11 -15 -23 -22 -27 -7 -5 -8 -2 -3 7 21 37 44 55 25 20z m905 -96 c42
-82 40 -99 -15 -107 -29 -4 -30 -3 -31 36 0 23 -3 35 -6 29 -7 -20 -21 -15
-25 7 -2 12 -7 19 -13 18 -5 -2 -9 -7 -7 -13 2 -5 -2 -4 -9 3 -25 24 25 118
56 106 6 -3 28 -38 50 -79z m395 54 c0 -21 -26 -37 -38 -24 -4 4 -1 10 6 12 6
3 12 14 12 24 0 11 5 17 10 14 6 -3 10 -15 10 -26z m-520 -33 c0 -34 -10 -38
-30 -13 -13 15 -15 26 -8 34 14 17 38 4 38 -21z m-1060 -550 c0 -7 -7 -19 -15
-26 -16 -13 -20 -3 -9 24 8 20 24 21 24 2z m-4 -100 c-23 -61 -50 -83 -29 -25
18 55 33 82 40 75 3 -3 -2 -26 -11 -50z m31 -134 c12 -7 30 -24 41 -39 l20
-28 -89 3 c-60 2 -89 7 -89 15 0 7 -4 6 -10 -3 -5 -8 -12 -12 -15 -8 -10 10 5
49 16 43 5 -3 18 -1 30 6 16 8 18 13 9 19 -21 13 63 5 87 -8z m-593 -131 c15
-6 16 -9 5 -13 -8 -3 -20 1 -27 8 -14 15 -7 17 22 5z m901 -687 c9 3 12 0 9
-9 -3 -7 -12 -16 -20 -19 -10 -4 -14 3 -13 27 1 18 3 24 6 14 3 -11 11 -16 18
-13z m-94 -251 c-8 -15 -10 -15 -11 -2 0 17 10 32 18 25 2 -3 -1 -13 -7 -23z"/>
<path d="M5390 5200 c0 -5 5 -10 11 -10 5 0 7 5 4 10 -3 6 -8 10 -11 10 -2 0
-4 -4 -4 -10z"/>
<path d="M5460 5190 c-9 -16 -8 -18 5 -14 8 4 15 12 15 20 0 20 -7 17 -20 -6z"/>
<path d="M5396 5172 c-3 -5 1 -9 9 -9 8 0 12 4 9 9 -3 4 -7 8 -9 8 -2 0 -6 -4
-9 -8z"/>
<path d="M5550 4985 c-14 -16 -3 -20 19 -6 8 5 9 11 3 15 -5 3 -15 -1 -22 -9z"/>
<path d="M4555 5359 c-4 -6 -5 -12 -2 -15 2 -3 7 2 10 11 7 17 1 20 -8 4z"/>
<path d="M3252 5108 c-8 -8 -9 -15 -1 -25 18 -21 39 -16 36 9 -4 26 -18 33
-35 16z"/>
<path d="M3030 5091 c0 -6 5 -11 11 -11 6 0 30 -16 53 -35 50 -41 63 -44 41
-12 -8 13 -12 27 -8 30 3 4 -3 7 -13 7 -11 0 -24 4 -29 9 -17 15 -55 23 -55
12z"/>
<path d="M3135 4985 c-26 -12 -27 -14 -8 -15 12 0 25 5 28 10 10 17 21 12 67
-32 81 -78 90 -84 82 -65 -3 9 -10 17 -15 17 -4 0 -5 7 -2 17 4 11 3 14 -6 9
-7 -5 -29 8 -56 33 -49 45 -48 45 -90 26z"/>
<path d="M3406 4875 c-3 -9 -6 -22 -5 -28 0 -7 5 -1 10 12 5 13 8 26 5 28 -2
2 -6 -3 -10 -12z"/>
<path d="M3887 4861 c-3 -13 -1 -18 9 -14 7 2 10 11 7 19 -7 19 -10 18 -16 -5z"/>
<path d="M3556 4829 c-8 -41 -8 -51 2 -45 8 5 16 76 9 76 -3 0 -7 -14 -11 -31z"/>
<path d="M3300 4840 c-13 -8 -13 -10 2 -10 9 0 20 5 23 10 8 13 -5 13 -25 0z"/>
<path d="M3590 4840 c-9 -6 -10 -10 -3 -10 6 0 15 5 18 10 8 12 4 12 -15 0z"/>
<path d="M3258 4823 c7 -3 16 -2 19 1 4 3 -2 6 -13 5 -11 0 -14 -3 -6 -6z"/>
<path d="M3376 4811 c-10 -10 -13 -22 -8 -25 5 -3 14 6 20 19 14 30 11 31 -12
6z"/>
<path d="M3588 4793 c7 -3 16 -2 19 1 4 3 -2 6 -13 5 -11 0 -14 -3 -6 -6z"/>
<path d="M3839 4773 c-13 -16 -12 -17 4 -4 16 13 21 21 13 21 -2 0 -10 -8 -17
-17z"/>
<path d="M3380 4761 c0 -6 4 -13 10 -16 6 -3 7 1 4 9 -7 18 -14 21 -14 7z"/>
<path d="M3536 4753 c-6 -14 -5 -15 5 -6 7 7 10 15 7 18 -3 3 -9 -2 -12 -12z"/>
<path d="M3406 4717 c3 -10 9 -15 12 -12 3 3 0 11 -7 18 -10 9 -11 8 -5 -6z"/>
<path d="M3492 4692 c-21 -28 -43 -42 -74 -50 l-43 -11 40 5 c22 3 50 15 63
27 12 12 35 23 50 25 34 4 42 12 13 12 -17 0 -21 4 -17 15 9 23 2 18 -32 -23z"/>
<path d="M4030 4675 c-21 -8 -28 -14 -16 -14 15 -1 16 -4 6 -16 -11 -13 -10
-14 4 -9 9 3 16 11 16 16 0 6 8 17 18 24 21 16 17 16 -28 -1z"/>
<path d="M3964 4664 c-18 -14 -18 -15 4 -4 12 6 22 13 22 15 0 8 -5 6 -26 -11z"/>
<path d="M3350 4639 c0 -5 5 -7 10 -4 6 3 10 8 10 11 0 2 -4 4 -10 4 -5 0 -10
-5 -10 -11z"/>
<path d="M3288 4633 c12 -2 30 -2 40 0 9 3 -1 5 -23 4 -22 0 -30 -2 -17 -4z"/>
<path d="M3822 4570 c-1 -19 -5 -53 -7 -75 -5 -35 -4 -37 5 -15 6 13 9 47 7
75 -2 35 -4 40 -5 15z"/>
<path d="M3490 4570 c6 -11 13 -20 16 -20 2 0 0 9 -6 20 -6 11 -13 20 -16 20
-2 0 0 -9 6 -20z"/>
<path d="M3590 4515 c-26 -27 -50 -33 -50 -11 0 8 -7 16 -14 19 -10 4 -13 1
-10 -7 4 -10 -10 -17 -44 -25 -61 -15 -131 -40 -114 -41 8 0 48 10 89 22 75
22 76 22 90 2 7 -10 21 -43 29 -72 l16 -52 28 20 c30 22 46 40 35 40 -4 0 -18
-9 -32 -20 -30 -23 -28 -24 -37 14 -6 23 -4 27 8 23 8 -3 16 2 19 13 3 12 -2
20 -14 23 -11 3 -20 -1 -22 -12 -4 -12 -5 -12 -6 4 0 10 13 34 31 52 18 18 30
33 27 33 -3 0 -16 -11 -29 -25z"/>
<path d="M3980 4518 c0 -5 18 -8 40 -8 22 0 40 2 40 4 0 2 -18 6 -40 8 -22 2
-40 0 -40 -4z"/>
<path d="M247 4513 c-12 -11 -8 -78 5 -91 7 -7 29 -12 50 -12 61 0 135 -20
155 -42 17 -19 18 -57 18 -872 0 -468 -3 -863 -8 -878 -10 -37 -31 -46 -134
-61 l-88 -12 0 -44 0 -44 370 0 370 0 0 44 0 44 -89 12 c-49 7 -99 20 -111 27
-31 20 -35 77 -35 482 l0 344 24 0 c15 0 36 -14 57 -37 17 -21 60 -69 94 -108
236 -265 455 -517 438 -502 -22 19 -33 14 -33 -15 0 -10 -11 -41 -25 -67 -13
-27 -33 -72 -43 -99 l-20 -51 118 6 c102 5 121 4 135 -11 11 -10 25 -14 41
-10 13 3 31 1 38 -5 8 -7 31 -11 53 -10 41 2 83 -8 83 -20 0 -4 19 -8 43 -9
32 -1 47 -8 62 -27 12 -14 27 -25 34 -25 9 0 11 -8 7 -25 -6 -23 -4 -25 31
-26 68 -2 98 -13 98 -34 0 -15 9 -21 36 -25 19 -4 45 -16 57 -28 13 -13 34
-22 54 -22 17 0 39 -7 49 -16 12 -11 38 -16 78 -17 34 0 61 -4 61 -8 0 -15 57
-20 101 -9 47 12 106 20 153 20 17 0 43 13 65 30 19 17 47 30 61 30 17 0 39
13 60 35 23 23 40 33 52 30 12 -4 24 4 40 29 16 25 28 34 41 30 14 -4 23 7 43
50 14 31 33 58 44 61 14 4 20 16 21 38 0 18 3 67 5 110 4 63 1 84 -16 116 -11
22 -17 46 -15 54 3 7 -8 40 -25 72 -19 36 -28 65 -24 77 3 11 0 33 -6 49 -7
16 -11 32 -8 34 9 9 127 -29 192 -63 72 -38 154 -112 245 -222 30 -36 69 -75
86 -87 33 -22 33 -23 28 -90 -6 -87 -62 -305 -214 -838 -33 -115 -78 -277
-101 -360 -22 -82 -51 -172 -64 -199 -13 -28 -24 -60 -24 -73 0 -13 -4 -23 -8
-23 -8 0 -66 74 -98 125 -66 106 -183 204 -264 220 -65 12 -70 15 -70 43 -2
115 -100 316 -146 298 -19 -7 -44 5 -111 55 -33 25 -63 39 -82 39 -25 0 -37
10 -73 57 -56 75 -115 133 -135 133 -8 0 -31 -13 -50 -30 -40 -36 -67 -37
-155 -10 -70 22 -133 26 -144 9 -4 -7 -8 -32 -9 -57 -2 -41 -8 -51 -46 -85
-40 -35 -47 -38 -94 -35 -40 2 -49 0 -47 -12 2 -8 6 -37 9 -65 4 -43 1 -56
-26 -97 -19 -30 -45 -55 -73 -69 -73 -37 -78 -44 -78 -122 0 -63 -3 -72 -31
-104 -22 -26 -29 -42 -24 -57 25 -85 28 -127 17 -188 -7 -35 -11 -90 -11 -123
1 -36 -5 -76 -15 -99 -19 -45 -14 -56 22 -56 15 0 48 -11 74 -25 26 -14 83
-33 128 -44 45 -10 83 -20 85 -22 2 -3 5 -22 7 -44 3 -40 4 -40 63 -57 33 -10
83 -18 111 -18 55 0 74 -12 74 -47 0 -27 4 -28 60 -8 74 26 111 20 155 -25 43
-44 91 -54 116 -23 18 21 134 95 177 113 30 12 38 11 65 -5 18 -10 41 -26 52
-36 11 -10 25 -15 31 -11 10 6 46 67 49 82 1 3 12 26 25 52 25 51 42 58 78 32
26 -18 23 -22 52 90 11 44 20 103 20 132 l0 52 30 -11 c25 -10 33 -9 41 3 26
40 -42 211 -125 313 -45 56 -46 57 -21 57 77 0 169 -80 271 -236 40 -62 77
-115 83 -119 7 -4 11 -51 11 -126 0 -107 -2 -121 -20 -136 -22 -19 -26 -48 -9
-59 14 -8 4 -75 -13 -85 -9 -6 -9 -11 2 -24 18 -22 16 -141 -6 -276 -16 -100
-20 -112 -46 -131 -20 -13 -27 -26 -23 -38 4 -11 -3 -23 -19 -33 -13 -9 -27
-24 -30 -34 -6 -17 -78 -58 -103 -58 -6 0 -19 -8 -30 -16 -10 -9 -40 -28 -68
-42 l-50 -26 171 -1 172 0 65 40 c36 22 157 85 269 141 112 57 214 110 228
119 14 9 52 35 85 57 33 22 76 48 95 58 39 20 79 62 80 86 0 8 4 19 9 25 6 5
12 35 15 67 3 32 8 63 11 68 11 17 -20 9 -45 -12 -21 -17 -22 -19 -3 -10 32
16 38 13 18 -9 -11 -12 -13 -20 -6 -20 7 0 9 -5 4 -12 -4 -7 -6 -23 -5 -35 3
-23 -23 -83 -42 -95 -20 -13 -36 -8 -36 11 0 10 -6 21 -14 24 -8 3 -13 12 -12
19 3 19 39 78 48 78 4 0 8 4 8 10 0 9 -39 -16 -191 -123 -37 -26 -72 -47 -78
-47 -6 0 -62 -31 -123 -69 -118 -71 -212 -121 -230 -121 -16 0 -3 233 15 293
15 47 15 48 -6 41 -18 -5 -20 -4 -9 7 6 7 12 29 12 48 0 19 10 55 22 79 l21
45 -22 18 c-20 16 -21 20 -7 25 20 8 21 24 1 24 -8 0 -15 7 -15 16 0 8 -4 13
-8 10 -11 -7 -11 29 0 104 6 36 11 79 11 95 1 18 8 33 18 37 9 3 19 19 22 35
6 30 11 50 63 239 33 121 95 274 142 348 13 22 25 45 26 51 2 14 222 262 271
307 88 79 299 133 390 98 50 -19 15 -29 -90 -26 -76 2 -105 -1 -109 -10 -3 -7
-18 -15 -35 -19 -30 -6 -102 -67 -131 -110 -8 -12 -24 -34 -34 -49 -18 -26
-18 -27 -1 -40 13 -9 15 -15 7 -20 -7 -4 -12 -14 -12 -22 0 -8 4 -13 9 -10 15
10 33 -22 35 -64 1 -23 7 -45 14 -49 7 -4 16 -29 21 -56 6 -32 17 -55 30 -64
12 -7 21 -22 21 -31 0 -31 12 -51 36 -60 13 -5 30 -24 38 -42 18 -42 62 -89
79 -83 6 3 23 -13 36 -35 27 -44 50 -57 63 -38 8 10 11 10 15 -2 9 -23 64 -71
74 -64 5 3 21 -9 36 -26 17 -21 32 -30 45 -27 10 3 18 0 18 -6 0 -7 14 -41 30
-76 22 -45 34 -61 45 -57 9 3 19 -3 26 -17 17 -34 51 -67 67 -67 8 0 30 -13
49 -30 18 -16 42 -30 52 -30 11 0 28 -15 40 -35 21 -35 35 -43 46 -25 11 18
21 11 90 -58 37 -37 74 -66 81 -64 7 1 20 -11 29 -28 8 -16 25 -32 38 -36 21
-5 67 -64 67 -85 0 -13 16 -11 27 3 5 7 24 80 42 163 34 155 46 189 61 180 14
-9 23 35 9 51 -7 8 -8 14 -3 13 48 -9 69 23 33 49 -13 9 -28 16 -33 14 -5 -2
-3 5 5 14 8 10 9 15 2 11 -19 -12 -51 13 -46 34 3 11 9 17 13 14 5 -3 11 -1
14 4 4 5 2 12 -4 16 -5 3 -10 11 -10 18 0 6 6 3 13 -7 19 -25 50 -11 43 20 -4
14 -2 24 4 24 6 0 8 5 5 10 -3 6 -1 10 4 10 6 0 11 9 11 20 0 12 7 20 17 20
15 0 15 1 -2 13 -17 13 -13 43 5 32 5 -3 11 -1 15 5 4 6 11 7 17 4 8 -5 9 -1
5 10 -4 10 -2 16 6 15 28 -3 37 2 37 25 0 18 -7 26 -27 31 l-28 7 25 13 c28
15 42 11 33 -10 -7 -19 4 -19 23 0 11 10 14 32 13 72 -2 36 2 58 9 61 15 5 16
58 1 68 -6 4 -8 17 -3 33 10 38 6 71 -12 98 -12 19 -13 28 -4 38 14 17 3 38
-16 31 -12 -5 -12 -2 -2 17 20 38 18 126 -4 164 -11 18 -17 40 -14 49 8 20
-21 74 -39 74 -8 0 -15 9 -15 19 0 25 -18 37 -26 17 -3 -8 -14 -18 -25 -21
-10 -4 -19 -15 -19 -27 0 -14 -5 -18 -15 -14 -8 3 -18 -1 -22 -8 -5 -8 -30
-17 -58 -21 -27 -4 -57 -8 -65 -9 -8 -1 -28 -8 -45 -15 -16 -7 -53 -22 -82
-32 -28 -11 -57 -26 -63 -34 -19 -22 2 -18 51 10 24 14 54 25 67 25 12 0 33 6
45 14 12 8 47 16 77 18 47 3 55 1 54 -14 -1 -10 3 -15 8 -12 6 4 8 1 6 -7 -6
-16 -39 -13 -50 4 -5 8 -8 5 -8 -7 0 -10 -8 -25 -18 -32 -15 -12 -15 -13 0
-14 9 0 19 6 21 13 4 8 8 8 14 2 4 -5 17 -17 27 -25 18 -14 19 -13 13 12 -7
27 -6 27 25 22 25 -4 29 -3 18 5 -13 10 -13 11 0 12 8 0 22 2 31 4 12 2 15 -2
11 -17 -4 -18 8 -72 29 -127 13 -31 1 -42 -17 -17 -8 11 -14 15 -14 9 0 -6
-22 -9 -57 -8 -70 3 -167 -11 -171 -25 -5 -13 -82 51 -82 68 0 7 -4 11 -9 8
-5 -4 -11 -3 -13 1 -1 5 -49 39 -106 78 -57 38 -106 73 -108 77 -3 5 6 12 19
17 14 6 28 15 32 20 3 6 14 11 23 11 10 0 32 13 50 30 18 16 36 29 40 28 4 -1
27 9 52 20 44 22 44 22 10 16 -34 -6 -138 -58 -192 -95 -14 -11 -32 -19 -40
-19 -8 1 -7 4 5 11 9 5 17 19 17 30 0 11 4 18 9 15 5 -3 11 1 15 9 3 8 12 12
20 9 20 -8 58 36 50 58 -4 13 -1 16 10 12 8 -3 21 -1 28 6 7 6 28 20 46 30 17
11 32 24 32 30 0 13 -49 8 -58 -6 -4 -6 -25 -11 -47 -12 -35 -2 -38 -1 -20 10
11 7 22 13 25 13 3 1 25 7 50 15 77 22 107 21 114 -3 6 -20 7 -21 17 -4 16 27
52 21 77 -13 12 -16 22 -34 22 -40 0 -15 20 -12 20 3 0 6 5 4 11 -6 5 -9 7
-22 4 -27 -3 -6 -2 -10 4 -10 5 0 2 -14 -6 -31 -13 -26 -13 -33 -2 -40 9 -5
15 -4 17 5 2 8 11 12 23 9 15 -4 19 0 20 18 0 22 1 22 8 4 8 -19 8 -19 22 3 8
12 19 22 26 22 7 0 13 4 13 9 0 12 -26 32 -33 25 -12 -12 -38 26 -32 45 5 15
-1 24 -24 36 -24 12 -31 12 -31 3 0 -14 -46 -39 -54 -30 -3 3 2 11 12 18 14
11 15 13 1 14 -10 0 -15 10 -15 33 l1 32 -62 3 c-60 3 -63 2 -63 -20 0 -22 -6
-25 -63 -33 -53 -9 -64 -8 -79 7 -9 9 -13 19 -10 23 4 4 7 20 7 36 0 35 -14
37 -86 9 -31 -11 -63 -17 -80 -13 -19 3 -29 1 -29 -6 0 -7 -4 -10 -9 -7 -5 3
-25 -6 -46 -19 -20 -14 -48 -26 -62 -27 -15 -2 -44 -20 -65 -40 -22 -21 -44
-38 -48 -38 -15 0 -80 -64 -80 -77 0 -13 17 -19 78 -27 19 -3 37 -8 40 -12 8
-8 -83 1 -113 11 -15 5 -12 0 10 -20 l30 -26 -32 17 c-18 10 -33 21 -33 25 0
16 -85 39 -146 39 -78 0 -164 -21 -251 -60 -53 -24 -88 -53 -199 -165 -92 -94
-133 -129 -129 -112 4 14 2 28 -4 31 -6 4 -8 20 -4 36 4 22 1 31 -11 36 -9 3
-16 14 -16 23 0 14 -2 14 -10 1 -5 -8 -12 -11 -16 -7 -4 4 -2 13 4 19 7 7 12
22 12 35 0 13 9 32 20 43 27 27 54 95 47 120 -3 11 -2 18 3 15 4 -3 15 21 23
53 9 31 34 119 56 195 46 155 48 172 22 140 -11 -13 -21 -23 -24 -23 -11 0
-14 39 -4 49 6 6 8 11 4 11 -4 0 -3 9 3 20 8 15 8 20 -1 20 -8 0 -7 6 3 18 18
20 75 164 82 207 3 17 12 51 20 77 8 25 12 49 9 52 -4 3 -1 6 6 6 7 0 10 3 8
8 -3 4 2 39 10 77 7 39 16 81 18 93 2 13 8 45 14 70 5 26 12 64 15 85 4 34 3
37 -20 37 -18 0 -24 -5 -24 -23 0 -12 -13 -74 -29 -137 -16 -63 -32 -135 -36
-160 -4 -25 -17 -90 -30 -144 -21 -94 -23 -100 -56 -115 -19 -9 -40 -30 -49
-48 l-15 -32 -117 119 c-107 108 -127 124 -219 169 -55 28 -118 54 -140 57
-21 4 -43 12 -48 18 -16 20 -31 116 -25 158 5 28 3 42 -6 48 -9 6 -13 29 -11
74 1 36 -2 66 -7 66 -6 0 -13 21 -17 46 -3 26 -11 57 -17 69 -12 28 -51 50
-72 42 -11 -4 -22 3 -33 21 -25 40 -75 92 -89 92 -7 0 -22 13 -33 29 -35 48
-121 78 -104 36 7 -21 0 -19 -62 16 -63 36 -110 34 -125 -6 -13 -36 -70 -47
-110 -23 -16 10 -25 9 -50 -5 -18 -11 -39 -16 -51 -12 -14 5 -31 -3 -59 -29
-21 -19 -56 -40 -78 -45 -58 -16 -108 -53 -104 -78 2 -14 -12 -33 -48 -63 -52
-44 -64 -70 -30 -70 29 0 25 -12 -13 -37 -17 -12 -52 -43 -77 -68 -37 -38 -42
-47 -30 -56 12 -8 9 -15 -21 -42 -42 -37 -63 -72 -55 -93 3 -8 -10 -31 -30
-54 -20 -22 -40 -57 -45 -77 -7 -32 -5 -41 13 -60 12 -13 19 -23 16 -23 -11 0
-518 585 -518 598 0 4 95 97 211 207 115 110 288 281 382 379 194 202 229 226
370 248 l78 12 -3 45 c-2 33 -7 45 -17 43 -40 -8 -452 -12 -548 -5 -62 5 -117
7 -122 5 -6 -2 -11 -23 -11 -46 l0 -43 63 -7 c64 -6 109 -30 115 -59 10 -53
-111 -199 -414 -497 -224 -221 -345 -330 -365 -330 -12 0 -8 806 5 832 10 22
57 38 136 45 36 3 71 10 78 16 14 11 16 69 3 82 -6 6 -67 7 -158 2 -138 -7
-519 -1 -554 9 -8 2 -18 1 -22 -3z m2029 -1518 c-9 -9 -17 -11 -21 -5 -3 5 -1
10 5 10 6 0 9 4 6 9 -4 5 0 11 6 14 19 6 22 -11 4 -28z m-52 -11 c5 -14 4 -15
-9 -4 -17 14 -19 20 -6 20 5 0 12 -7 15 -16z m-71 -11 c-13 -8 -23 -25 -24
-37 0 -19 -1 -19 -8 -3 -6 17 -8 17 -20 3 -7 -9 -11 -22 -8 -31 10 -25 -13
-28 -33 -3 -19 22 -23 59 -8 59 4 0 20 6 35 14 16 8 42 15 58 14 l30 0 -22
-16z m-153 -49 c0 -8 -10 -14 -25 -14 -14 0 -25 5 -25 10 0 6 7 10 15 10 8 0
15 5 15 11 0 5 5 7 10 4 6 -3 10 -13 10 -21z m-380 -29 c13 -14 21 -25 18 -25
-2 0 -15 11 -28 25 -13 14 -21 25 -18 25 2 0 15 -11 28 -25z m515 -15 c-3 -5
-10 -10 -16 -10 -5 0 -9 5 -9 10 0 6 7 10 16 10 8 0 12 -4 9 -10z m1378 -92
c-17 -61 -23 -70 -23 -39 0 23 25 91 34 91 3 0 -2 -24 -11 -52z m-2018 -158
c33 -33 57 -60 54 -60 -2 0 -31 27 -64 60 -33 33 -57 60 -54 60 2 0 31 -27 64
-60z m683 24 c12 -4 22 -12 22 -19 0 -7 10 -11 24 -10 18 2 23 -1 19 -11 -3
-8 -14 -14 -25 -14 -10 0 -18 -6 -16 -12 2 -7 -1 -14 -6 -15 -5 -1 -12 -7 -16
-13 -7 -12 -25 -14 -89 -8 -31 3 -35 7 -38 36 -3 18 0 32 6 32 6 0 11 -8 11
-17 0 -35 14 -45 44 -32 23 11 29 10 36 -1 11 -18 22 -8 14 13 -4 12 -11 14
-31 6 -32 -12 -33 -12 -27 6 3 8 14 17 24 20 12 4 16 12 13 25 -6 21 -1 23 35
14z m124 -56 c-3 -14 -1 -19 6 -14 6 3 14 1 18 -5 5 -9 0 -10 -17 -5 -13 4
-30 8 -37 10 -14 3 -17 21 -3 21 5 0 13 3 17 8 14 14 22 7 16 -15z m-135 -115
c-3 -10 -5 -2 -5 17 0 19 2 27 5 18 2 -10 2 -26 0 -35z m-239 -30 c-10 -2 -26
-2 -35 0 -10 3 -2 5 17 5 19 0 27 -2 18 -5z m80 -10 c-10 -2 -26 -2 -35 0 -10
3 -2 5 17 5 19 0 27 -2 18 -5z m115 0 c-18 -2 -48 -2 -65 0 -18 2 -4 4 32 4
36 0 50 -2 33 -4z m2502 -83 c-3 -5 -12 -10 -18 -10 -7 0 -6 4 3 10 19 12 23
12 15 0z m25 -20 c0 -5 -5 -10 -11 -10 -5 0 -7 5 -4 10 3 6 8 10 11 10 2 0 4
-4 4 -10z m-130 -260 c0 -5 -2 -10 -4 -10 -3 0 -8 5 -11 10 -3 6 -1 10 4 10 6
0 11 -4 11 -10z m486 -9 c-4 -5 0 -11 6 -14 7 -2 9 -8 5 -13 -9 -10 -28 16
-21 28 3 4 7 8 10 8 3 0 3 -4 0 -9z m54 -15 c0 -2 -7 -7 -16 -10 -8 -3 -12 -2
-9 4 6 10 25 14 25 6z m-1120 -36 c0 -5 -5 -10 -11 -10 -5 0 -7 5 -4 10 3 6 8
10 11 10 2 0 4 -4 4 -10z m125 -45 c10 -28 10 -35 -2 -39 -8 -3 -11 -11 -7
-18 5 -8 0 -9 -14 -6 -12 4 -20 3 -18 -1 6 -10 -5 -24 -34 -44 -32 -22 -58
-23 -40 -2 7 8 19 15 26 15 8 0 14 5 14 10 0 6 -4 10 -9 10 -5 0 -1 17 9 37
10 20 16 43 13 50 -5 12 37 36 46 27 3 -3 10 -20 16 -39z m350 -65 c4 0 0 9
-10 20 -23 26 -14 37 11 13 9 -10 18 -17 18 -15 1 2 9 0 19 -4 10 -3 21 -4 24
0 4 3 1 6 -6 6 -7 0 -9 5 -6 10 5 8 11 7 21 -1 8 -6 14 -8 14 -3 0 5 11 9 24
9 13 0 22 -4 18 -9 -3 -5 2 -6 12 -3 9 4 15 3 12 -2 -3 -5 11 -11 32 -14 26
-3 41 0 50 11 11 14 12 14 12 -2 0 -12 5 -16 15 -12 8 3 15 1 15 -5 0 -5 6 -9
13 -7 26 5 65 -18 137 -80 128 -111 249 -231 239 -237 -5 -4 -7 -11 -4 -16 4
-5 1 -9 -5 -9 -6 0 -10 -10 -8 -22 2 -16 -3 -22 -19 -23 -29 -2 -37 -10 -27
-27 5 -7 9 -24 9 -38 0 -16 5 -24 14 -22 12 3 12 0 1 -13 -9 -10 -16 -12 -25
-5 -6 5 -15 7 -18 3 -4 -3 -7 1 -7 11 0 10 -6 24 -14 32 -14 14 -26 4 -74 -61
-4 -5 -7 -27 -6 -47 1 -23 -5 -43 -14 -50 -13 -11 -14 -9 -7 12 14 48 12 50
-26 35 -11 -4 -18 1 -22 15 -3 12 -10 19 -16 16 -5 -3 -16 0 -24 8 -8 8 -17
13 -20 10 -2 -3 -7 2 -10 10 -4 11 -1 13 10 9 10 -4 14 -2 9 5 -3 6 -2 13 3
17 5 3 14 -2 19 -10 5 -9 15 -17 23 -18 8 -2 20 -6 27 -11 7 -4 20 -5 29 -2
12 5 8 11 -18 29 -37 24 -87 49 -107 53 -23 4 -26 13 -13 37 6 12 13 32 14 45
0 12 6 22 12 22 5 0 3 4 -5 9 -8 6 -18 7 -22 5 -4 -3 -6 1 -3 8 3 7 -5 18 -17
23 -13 6 -22 14 -21 19 3 13 52 19 66 9 7 -5 30 -6 52 -3 39 6 39 6 -23 14
-34 4 -95 6 -135 5 l-72 -4 4 44 c2 27 -2 47 -9 51 -8 5 -10 18 -6 33 4 19 15
26 41 31 34 7 49 26 20 26 -18 0 -20 16 -3 26 6 4 8 3 5 -3 -10 -16 38 -34 52
-20 8 8 11 7 11 -5 0 -11 6 -15 20 -11 11 3 20 1 20 -4 0 -5 13 -10 30 -10 29
0 29 1 9 15 -11 8 -31 15 -45 16 -13 0 -24 6 -24 13 0 19 -144 46 -217 40 -70
-5 -80 -10 -67 -30 14 -21 -27 26 -74 84 l-44 54 49 -52 c27 -29 53 -53 58
-53z m720 71 c-3 -6 3 -14 12 -20 16 -9 16 -10 2 -11 -17 0 -32 23 -22 34 10
9 15 7 8 -3z m-1000 -30 c-3 -11 1 -36 9 -56 11 -25 13 -43 7 -54 -7 -13 -4
-20 10 -29 13 -9 18 -19 14 -32 -8 -26 5 -71 18 -63 7 4 26 8 44 9 26 1 31 -2
24 -15 -5 -9 -7 -23 -6 -32 2 -12 -3 -15 -16 -12 -23 6 -23 7 -3 28 9 9 14 18
11 21 -7 7 -61 -18 -70 -33 -4 -7 -13 -18 -20 -25 -15 -15 -16 -19 -18 -50 -4
-61 -16 61 -18 180 -1 73 -5 140 -8 148 -3 9 0 20 8 25 20 12 21 11 14 -10z
m-806 -57 c-12 -50 -29 -81 -29 -52 0 8 5 30 11 49 6 19 13 40 15 48 3 8 7 12
10 9 3 -3 0 -27 -7 -54z m638 16 c-1 -22 -12 -26 -23 -9 -3 6 0 15 7 20 18 12
18 12 16 -11z m-587 -70 c-17 -32 -21 -19 -7 26 9 30 13 34 15 17 2 -12 -2
-32 -8 -43z m683 3 c-10 -8 -12 -12 -5 -8 6 3 12 1 12 -4 0 -6 -5 -11 -11 -11
-8 0 -8 -5 1 -15 7 -8 10 -15 6 -15 -14 0 -22 -5 -46 -27 -29 -26 -42 -30 -34
-8 4 8 9 15 13 15 4 0 6 14 3 30 -3 23 -1 29 10 25 9 -4 20 4 27 19 8 14 19
22 28 19 11 -4 10 -8 -4 -20z m398 -10 c13 -16 12 -17 -3 -4 -17 13 -22 21
-14 21 2 0 10 -8 17 -17z m629 -6 c7 -17 9 -18 9 -4 1 21 20 22 28 1 3 -9 12
-13 22 -9 12 5 13 4 4 -6 -10 -10 -16 -9 -30 2 -16 12 -17 12 -6 -2 8 -9 10
-30 6 -52 -5 -34 -4 -37 13 -30 11 4 24 14 31 22 10 14 11 13 10 -4 -1 -11
-12 -26 -24 -33 -13 -7 -23 -20 -23 -28 0 -10 -6 -14 -15 -10 -8 3 -15 1 -15
-4 0 -6 -7 -10 -15 -10 -18 0 -20 -16 -3 -26 7 -5 8 -3 3 6 -6 10 -1 12 23 7
20 -4 32 -2 32 4 0 6 5 7 11 3 8 -5 8 -8 0 -13 -11 -7 -21 -51 -10 -48 3 1 13
-4 23 -12 11 -9 13 -17 6 -26 -7 -9 -24 1 -64 39 -30 28 -97 91 -150 140 -53
49 -93 92 -89 97 12 11 39 14 131 16 77 2 84 1 92 -20z m-777 -13 c-7 -19 -25
-13 -29 8 -1 11 4 14 16 11 11 -3 16 -11 13 -19z m57 -25 c0 -6 -4 -7 -10 -4
-5 3 -10 11 -10 16 0 6 5 7 10 4 6 -3 10 -11 10 -16z m-7 -52 c-8 -13 -33 14
-33 37 0 20 1 20 19 -4 11 -13 17 -28 14 -33z m-143 35 c0 -4 -10 -9 -22 -9
-18 -2 -20 0 -8 7 18 12 30 13 30 2z m-144 -32 c0 -10 -2 -17 -4 -15 -2 2 -15
0 -28 -5 -19 -8 -22 -6 -17 8 13 34 49 44 49 12z m-730 -2 c4 -6 2 -14 -4 -16
-7 -2 -19 -17 -28 -34 -10 -20 -19 -27 -25 -21 -7 7 -2 23 11 47 23 38 34 44
46 24z m728 -72 c-3 -9 -12 -16 -20 -16 -18 0 -18 5 2 25 19 19 27 15 18 -9z
m131 14 c3 -5 -1 -10 -10 -10 -9 0 -13 5 -10 10 3 6 8 10 10 10 2 0 7 -4 10
-10z m48 -37 c4 -3 2 -12 -4 -20 -9 -10 -15 -10 -25 -2 -8 6 -11 15 -8 20 6
11 28 12 37 2z m-203 -7 c0 -3 -4 -8 -10 -11 -5 -3 -10 -1 -10 4 0 6 5 11 10
11 6 0 10 -2 10 -4z m27 -11 c0 -8 -4 -15 -9 -15 -10 0 -11 14 -1 23 9 10 10
9 10 -8z m116 -36 c4 -13 11 -17 24 -14 11 3 9 1 -5 -6 -15 -8 -20 -18 -17
-29 3 -11 -1 -20 -10 -24 -14 -5 -16 1 -14 34 2 21 0 42 -4 46 -12 12 -8 24 7
18 8 -3 16 -14 19 -25z m-119 -10 c-8 -14 -24 -10 -24 6 0 9 6 12 15 9 8 -4
12 -10 9 -15z m1061 -40 c7 -21 35 -26 35 -6 0 7 7 4 15 -7 17 -23 20 -66 4
-66 -6 0 -8 9 -4 20 4 11 2 20 -4 20 -6 0 -11 -7 -11 -15 0 -15 -30 -35 -52
-34 -7 0 -4 4 7 9 11 5 14 9 6 9 -9 1 -11 8 -8 23 4 13 -2 32 -14 49 -10 15
-19 33 -19 40 0 17 38 -18 45 -42z m-845 -47 c0 -13 -3 -12 -15 4 -19 25 -19
40 0 24 8 -7 15 -20 15 -28z m80 18 c0 -5 -4 -10 -10 -10 -5 0 -10 5 -10 10 0
6 5 10 10 10 6 0 10 -4 10 -10z m-120 -22 c0 -5 -4 -6 -10 -3 -5 3 -10 -2 -10
-11 0 -16 -1 -16 -14 1 -8 11 -12 23 -10 26 6 10 44 -1 44 -13z m814 -44 c4
-10 13 -13 26 -9 11 3 20 3 20 -2 0 -17 -38 -11 -56 8 -9 10 -12 19 -7 19 6 0
14 -7 17 -16z m-112 -16 c-7 -7 -12 -8 -12 -2 0 14 12 26 19 19 2 -3 -1 -11
-7 -17z m192 -31 c3 3 6 -1 6 -11 0 -13 -4 -15 -19 -6 -11 5 -23 15 -27 21 -5
8 -1 8 13 0 11 -6 23 -7 27 -4z m-153 -50 c-10 -9 -11 -8 -5 6 3 10 9 15 12
12 3 -3 0 -11 -7 -18z m-2836 -1 c-11 -8 -23 -12 -28 -9 -13 8 3 23 26 23 20
0 20 0 2 -14z m2902 1 c0 -7 -8 -13 -18 -13 -13 0 -15 3 -7 13 6 7 14 13 18
13 3 0 7 -6 7 -13z m-287 -1 c0 -3 -4 -8 -10 -11 -5 -3 -10 -1 -10 4 0 6 5 11
10 11 6 0 10 -2 10 -4z m37 -12 c-3 -3 -12 -4 -19 -1 -8 3 -5 6 6 6 11 1 17
-2 13 -5z m53 -30 c0 -10 -6 -11 -32 -2 -28 10 -29 12 -12 18 24 9 44 2 44
-16z m-2870 -14 c0 -5 -2 -10 -4 -10 -3 0 -8 5 -11 10 -3 6 -1 10 4 10 6 0 11
-4 11 -10z m-50 -42 c0 -6 -3 -9 -6 -5 -4 3 -13 -1 -21 -9 -18 -18 -26 -13
-17 10 7 18 44 22 44 4z m1165 -115 c-24 -63 -27 -49 -7 32 13 54 18 63 20 41
2 -16 -4 -49 -13 -73z m-1268 80 c-4 -3 -2 -12 4 -20 13 -15 -4 -43 -27 -43
-8 0 -15 -6 -16 -12 0 -7 -2 -17 -3 -23 -2 -5 -3 -14 -4 -20 -1 -5 -6 -3 -11
5 -11 18 -53 23 -47 6 3 -7 -8 -19 -23 -28 l-28 -16 12 41 c8 30 21 46 46 60
19 10 44 27 55 38 11 10 26 19 34 19 8 0 11 -3 8 -7z m3103 -43 c0 -5 -10 -10
-22 -10 -19 0 -20 2 -8 10 19 13 30 13 30 0z m-3261 -74 c-13 -36 -40 -51 -58
-33 -8 8 -14 8 -23 -1 -9 -9 -8 -12 8 -12 18 -1 18 -1 1 -11 -9 -5 -22 -7 -27
-4 -15 9 -12 35 5 35 8 0 23 10 34 21 20 21 63 48 69 43 2 -1 -2 -18 -9 -38z
m-134 -53 c-2 -10 -4 -20 -5 -23 -1 -3 -2 -8 -2 -11 2 -12 -48 -17 -55 -6 -6
10 40 57 57 57 4 0 7 -8 5 -17z m437 1 c-5 -9 -8 -24 -7 -33 1 -9 0 -10 -2 -3
-6 15 -13 15 -37 -3 -25 -19 -36 -19 -36 1 0 8 4 13 8 10 5 -3 19 6 33 19 28
28 55 34 41 9z m-86 -13 c-15 -16 -66 -35 -66 -25 0 4 71 43 79 44 2 0 -4 -9
-13 -19z m-306 -16 c0 -2 -7 -5 -15 -9 -9 -3 -15 0 -15 9 0 9 6 12 15 9 8 -4
15 -7 15 -9z m1500 -19 c0 -8 -4 -18 -10 -21 -5 -3 -10 3 -10 14 0 12 5 21 10
21 6 0 10 -6 10 -14z m-1633 -60 c1 -12 -1 -28 -4 -36 -4 -8 -7 -18 -7 -22 -1
-5 -4 -8 -8 -7 -16 1 -108 44 -108 51 0 3 21 19 47 35 43 26 49 28 63 15 8 -9
16 -25 17 -36z m163 50 c0 -2 -7 -6 -15 -10 -8 -3 -15 -1 -15 4 0 6 7 10 15
10 8 0 15 -2 15 -4z m252 -18 c-7 -7 -12 -8 -12 -2 0 14 12 26 19 19 2 -3 -1
-11 -7 -17z m-522 8 c0 -3 -4 -8 -10 -11 -5 -3 -10 -1 -10 4 0 6 5 11 10 11 6
0 10 -2 10 -4z m450 -61 c0 -8 5 -15 10 -15 6 0 10 -9 10 -19 0 -21 -31 -23
-38 -3 -6 18 -20 14 -25 -5 -4 -14 -5 -12 -6 5 -1 13 5 22 14 22 8 0 15 7 15
15 0 8 5 15 10 15 6 0 10 -7 10 -15z m-316 -13 c-6 -4 -10 -15 -8 -26 2 -13
-1 -15 -8 -8 -13 13 -3 42 14 42 9 0 10 -3 2 -8z m386 -12 c0 -5 -5 -10 -11
-10 -5 0 -7 5 -4 10 3 6 8 10 11 10 2 0 4 -4 4 -10z m27 -226 c-3 -3 -12 -4
-19 -1 -8 3 -5 6 6 6 11 1 17 -2 13 -5z m1663 -285 c0 -4 -12 -21 -26 -38 -20
-24 -31 -30 -50 -25 -15 4 -24 2 -24 -6 0 -6 -5 -8 -11 -4 -8 5 -8 9 1 14 6 4
11 11 11 16 -1 5 7 9 17 9 9 0 23 10 29 22 12 20 53 29 53 12z m-130 -65 c0
-2 -7 -4 -15 -4 -8 0 -15 4 -15 10 0 5 7 7 15 4 8 -4 15 -8 15 -10z m-54 -27
c4 -4 -1 -14 -12 -21 -16 -13 -21 -12 -36 1 -20 18 -23 11 -7 -19 8 -15 8 -19
-1 -13 -15 9 -30 49 -20 55 12 8 67 6 76 -3z m-86 -42 c0 -21 -126 -92 -282
-160 -20 -8 -40 -20 -43 -25 -9 -14 -21 -12 -38 5 -12 12 -13 20 -4 40 7 14
16 25 20 25 5 0 5 5 1 12 -5 8 -2 9 12 4 42 -17 79 -17 99 -2 19 16 19 16 -10
10 -28 -5 -29 -4 -11 10 16 13 17 18 5 32 -12 15 -11 16 10 9 18 -5 22 -4 16
5 -5 9 -4 11 4 6 6 -4 9 -11 6 -15 -2 -5 1 -15 8 -23 21 -26 76 -4 84 32 5 30
16 35 61 31 12 -1 22 3 22 9 0 5 9 10 20 10 11 0 20 -7 20 -15z m-164 -30
c-20 -15 -36 -19 -36 -10 0 5 38 23 50 24 3 0 -4 -6 -14 -14z m-116 -55 c0 -5
-7 -7 -15 -4 -8 4 -15 8 -15 10 0 2 7 4 15 4 8 0 15 -4 15 -10z"/>
<path d="M4660 1830 c0 -6 7 -10 15 -10 8 0 15 2 15 4 0 2 -7 6 -15 10 -8 3
-15 1 -15 -4z"/>
<path d="M4868 1643 c7 -3 16 -2 19 1 4 3 -2 6 -13 5 -11 0 -14 -3 -6 -6z"/>
<path d="M5021 1726 c8 -8 78 -10 85 -3 4 4 -14 7 -41 7 -27 0 -46 -2 -44 -4z"/>
<path d="M5136 1502 c-3 -5 1 -9 9 -9 8 0 15 4 15 9 0 4 -4 8 -9 8 -6 0 -12
-4 -15 -8z"/>
<path d="M4992 4508 c-7 -7 -12 -21 -12 -33 0 -39 22 -52 94 -59 38 -4 83 -13
101 -21 30 -12 34 -18 40 -67 3 -29 5 -432 3 -896 -3 -930 3 -853 -68 -871
-19 -5 -61 -12 -93 -16 -50 -6 -59 -10 -68 -32 -21 -56 -25 -56 374 -57 l366
-1 6 23 c12 50 1 58 -95 71 -57 8 -98 19 -112 31 l-23 18 0 397 0 397 98 0
c53 -1 106 -3 116 -7 11 -3 126 -167 267 -378 137 -205 269 -393 294 -418 56
-56 152 -104 241 -119 36 -6 128 -12 205 -13 l139 -2 3 34 c4 43 -3 50 -71 61
-147 24 -223 87 -403 336 -159 219 -374 543 -374 563 0 4 35 25 77 47 111 56
235 180 289 288 33 69 40 91 43 160 9 214 -94 379 -299 478 -167 81 -166 80
-666 83 -242 1 -445 4 -451 8 -5 3 -15 1 -21 -5z m858 -128 c189 -55 289 -206
290 -435 0 -134 -37 -222 -132 -312 -102 -96 -198 -131 -381 -140 l-128 -6 3
441 c2 307 6 444 14 452 33 33 222 32 334 0z"/>
<path d="M3866 4445 c-11 -8 -15 -15 -9 -15 6 0 16 7 23 15 16 19 11 19 -14 0z"/>
<path d="M3948 4363 c6 -2 18 -2 25 0 6 3 1 5 -13 5 -14 0 -19 -2 -12 -5z"/>
<path d="M3210 4350 c0 -5 5 -10 11 -10 5 0 7 5 4 10 -3 6 -8 10 -11 10 -2 0
-4 -4 -4 -10z"/>
<path d="M3900 4350 c-8 -5 -10 -10 -5 -10 6 0 17 5 25 10 8 5 11 10 5 10 -5
0 -17 -5 -25 -10z"/>
<path d="M3490 4340 c-20 -6 -21 -8 -5 -8 11 0 29 3 40 8 25 11 -1 11 -35 0z"/>
<path d="M3721 4316 l-24 -31 28 27 c16 15 27 29 24 31 -2 3 -15 -10 -28 -27z"/>
<path d="M3303 4283 c0 -7 2 -11 4 -9 3 2 20 -2 39 -10 46 -19 43 -9 -4 14
-30 14 -39 15 -39 5z"/>
<path d="M3019 4263 c-13 -16 -12 -17 4 -4 16 13 21 21 13 21 -2 0 -10 -8 -17
-17z"/>
<path d="M3578 4243 c7 -3 16 -2 19 1 4 3 -2 6 -13 5 -11 0 -14 -3 -6 -6z"/>
<path d="M3425 4211 c-3 -5 -19 -12 -35 -16 -16 -4 -33 -11 -36 -17 -9 -14 33
-1 71 23 17 10 25 19 18 19 -6 0 -14 -4 -18 -9z"/>
<path d="M3100 4165 c-8 -9 -8 -15 -2 -15 12 0 26 19 19 26 -2 2 -10 -2 -17
-11z"/>
<path d="M4723 2435 c4 -8 2 -17 -2 -20 -5 -3 -7 -14 -4 -25 4 -15 8 -17 17
-7 7 7 15 20 19 30 3 9 11 17 17 17 5 0 10 5 10 10 0 6 -14 10 -31 10 -23 0
-30 -4 -26 -15z"/>
<path d="M4845 2233 c-16 -3 -34 -8 -39 -13 -12 -12 126 0 139 11 9 9 -42 10
-100 2z"/>
<path d="M4940 2179 c0 -5 5 -7 10 -4 6 3 10 8 10 11 0 2 -4 4 -10 4 -5 0 -10
-5 -10 -11z"/>
<path d="M4920 2147 c-27 -14 -28 -31 -1 -35 12 -2 21 4 24 15 4 16 5 17 6 1
1 -24 21 -23 21 1 0 25 -21 32 -50 18z"/>
<path d="M4797 2099 c7 -7 15 -10 18 -7 3 3 -2 9 -12 12 -14 6 -15 5 -6 -5z"/>
<path d="M4776 1971 c-4 -5 -2 -20 3 -33 6 -12 10 -18 10 -11 1 6 10 10 21 8
24 -5 25 1 5 21 -8 9 -15 11 -15 5 0 -6 -4 -11 -10 -11 -5 0 -7 7 -4 15 7 16
-1 21 -10 6z"/>
<path d="M5061 1964 c0 -11 3 -14 6 -6 3 7 2 16 -1 19 -3 4 -6 -2 -5 -13z"/>
<path d="M5191 1405 c1 -19 18 -51 18 -35 0 8 -4 22 -9 30 -5 8 -9 11 -9 5z"/>
<path d="M5120 1310 c-13 -9 -13 -12 3 -24 20 -16 22 -32 5 -39 -7 -2 -10 -7
-7 -11 7 -8 49 31 49 47 0 8 -3 8 -9 -2 -5 -8 -11 -9 -15 -3 -3 6 -2 13 4 17
11 7 4 25 -8 25 -4 0 -14 -5 -22 -10z"/>
<path d="M5120 1208 c0 -6 -6 -8 -12 -5 -7 2 -22 1 -33 -4 -16 -6 -17 -8 -3
-8 12 -1 16 -9 15 -27 -1 -19 3 -27 16 -30 12 -1 17 2 13 11 -2 7 6 25 20 38
24 24 24 25 4 30 -11 3 -20 1 -20 -5z"/>
<path d="M5010 1150 c0 -5 6 -9 13 -7 6 1 11 -3 10 -9 -1 -6 5 -11 13 -11 11
0 11 4 -3 19 -18 20 -33 24 -33 8z"/>
<path d="M3121 884 c0 -11 3 -14 6 -6 3 7 2 16 -1 19 -3 4 -6 -2 -5 -13z"/>
<path d="M3722 560 c-15 -12 -22 -28 -20 -41 4 -28 24 -35 31 -12 4 10 12 26
19 35 20 27 -2 40 -30 18z"/>
</g>
</svg>
